# Blender v3.1.2 OBJ File: 'Flag2Final.blend'
# www.blender.org
mtllib FlagStartEnd.mtl
o pCube32_lambert1_0
v 0.209344 0.103373 4.099024
v 0.209344 0.103373 3.459643
v -0.079356 1.213212 3.732443
v -0.079356 1.213212 3.398587
v -0.173886 4.801989 3.568853
v -0.173886 4.801989 3.338224
v -0.615767 4.801989 3.568853
v -0.615767 4.801989 3.338224
v -0.710297 1.213212 3.398587
v -0.998997 0.103373 3.459643
v -0.710297 1.213212 3.732443
v -0.998997 0.103373 4.099024
v -0.998997 0.103373 4.099024
v -0.998997 0.103373 3.459643
v 0.209344 0.103373 4.099024
v 0.209344 0.103373 3.459643
v 0.209344 0.103373 3.459643
v -0.998997 0.103373 3.459643
v -0.079356 1.213212 3.398587
v -0.710297 1.213212 3.398587
v -0.998997 0.103373 4.099024
v 0.209344 0.103373 4.099024
v -0.710297 1.213212 3.732443
v -0.079356 1.213212 3.732443
v -0.167511 2.738762 3.584790
v -0.167511 2.738762 3.289935
v -0.167511 2.738762 3.289935
v -0.622142 2.738762 3.289935
v -0.622142 2.738762 3.584790
v -0.622142 2.738762 3.289935
v -0.622142 2.738762 3.584790
v -0.167511 2.738762 3.584790
v -0.045509 4.692802 3.271220
v -0.045509 4.692802 3.635856
v -0.744145 4.692802 3.271220
v -0.744145 4.692802 3.635856
v -0.744145 4.692802 3.635856
v -0.045509 4.692802 3.635856
v -0.167511 2.738762 3.289935
v -0.622142 2.738762 3.289935
v -0.307327 3.353285 3.271220
v -0.482327 3.353285 3.271220
v -0.622142 2.738762 3.289935
v -0.744145 4.692802 3.271220
v -0.482327 3.353285 3.271220
v -0.482327 4.548543 3.271220
v -0.744145 4.692802 3.271220
v -0.045509 4.692802 3.271220
v -0.482327 4.548543 3.271220
v -0.307327 4.548543 3.271220
v -0.167511 2.738762 3.289935
v -0.307327 3.353285 3.271220
v -0.045509 4.692802 3.271220
v -0.307327 4.548543 3.271220
v 0.209344 0.103373 -4.259470
v -0.079356 1.213212 -3.892889
v 0.209344 0.103373 -3.620090
v -0.079356 1.213212 -3.559033
v -0.182257 4.801989 -3.724930
v -0.607395 4.801989 -3.724930
v -0.182257 4.801989 -3.503040
v -0.607395 4.801989 -3.503040
v -0.998997 0.103373 -4.259470
v -0.998997 0.103373 -3.620090
v -0.710297 1.213212 -3.892889
v -0.710297 1.213212 -3.559033
v -0.998997 0.103373 -4.259470
v 0.209344 0.103373 -4.259470
v -0.998997 0.103373 -3.620090
v 0.209344 0.103373 -3.620090
v 0.209344 0.103373 -3.620090
v -0.079356 1.213212 -3.559033
v -0.998997 0.103373 -3.620090
v -0.710297 1.213212 -3.559033
v -0.998997 0.103373 -4.259470
v -0.710297 1.213212 -3.892889
v 0.209344 0.103373 -4.259470
v -0.079356 1.213212 -3.892889
v -0.173171 2.738762 -3.741565
v -0.173171 2.738762 -3.454052
v -0.173171 2.738762 -3.454052
v -0.616482 2.738762 -3.454052
v -0.616482 2.738762 -3.454052
v -0.616482 2.738762 -3.741565
v -0.616482 2.738762 -3.741565
v -0.173171 2.738762 -3.741565
v -0.045508 4.692802 -3.796303
v -0.045508 4.692802 -3.431666
v -0.744145 4.692802 -3.431666
v -0.744145 4.692802 -3.796303
v -0.744145 4.692802 -3.796303
v -0.045508 4.692802 -3.796303
v -0.173171 2.738762 -3.454052
v -0.307326 3.353285 -3.431666
v -0.616482 2.738762 -3.454052
v -0.482326 3.353285 -3.431666
v -0.616482 2.738762 -3.454052
v -0.482326 3.353285 -3.431666
v -0.744145 4.692802 -3.431666
v -0.482326 4.548543 -3.431666
v -0.744145 4.692802 -3.431666
v -0.482326 4.548543 -3.431666
v -0.045508 4.692802 -3.431666
v -0.307326 4.548543 -3.431666
v -0.307326 4.548543 -3.431666
v -0.307326 3.353285 -3.431666
v -0.045508 4.692802 -3.431666
v -0.173171 2.738762 -3.454052
v -0.307326 3.353285 -3.431666
v -0.307327 3.353285 3.271220
v -0.482326 3.353285 -3.431666
v -0.482327 3.353285 3.271220
v -0.482326 3.353285 -3.431666
v -0.482327 3.353285 3.271220
v -0.482326 4.548543 -3.431666
v -0.482327 4.548543 3.271220
v -0.482326 4.548543 -3.431666
v -0.482327 4.548543 3.271220
v -0.307326 4.548543 -3.431666
v -0.307327 4.548543 3.271220
v -0.307326 4.548543 -3.431666
v -0.307327 4.548543 3.271220
v -0.307326 3.353285 -3.431666
v -0.307327 3.353285 3.271220
v -0.045509 4.692802 3.635856
v -0.045509 4.692802 3.271220
v -0.173886 4.801989 3.568853
v -0.173886 4.801989 3.338224
v -0.045509 4.692802 3.271220
v -0.744145 4.692802 3.271220
v -0.173886 4.801989 3.338224
v -0.615767 4.801989 3.338224
v -0.744145 4.692802 3.271220
v -0.744145 4.692802 3.635856
v -0.615767 4.801989 3.338224
v -0.615767 4.801989 3.568853
v -0.744145 4.692802 3.635856
v -0.045509 4.692802 3.635856
v -0.615767 4.801989 3.568853
v -0.173886 4.801989 3.568853
v -0.045508 4.692802 -3.796303
v -0.744145 4.692802 -3.796303
v -0.182257 4.801989 -3.724930
v -0.607395 4.801989 -3.724930
v -0.744145 4.692802 -3.796303
v -0.744145 4.692802 -3.431666
v -0.607395 4.801989 -3.724930
v -0.607395 4.801989 -3.503040
v -0.744145 4.692802 -3.431666
v -0.045508 4.692802 -3.431666
v -0.607395 4.801989 -3.503040
v -0.182257 4.801989 -3.503040
v -0.045508 4.692802 -3.431666
v -0.045508 4.692802 -3.796303
v -0.182257 4.801989 -3.503040
v -0.182257 4.801989 -3.724930
vt 0.401531 0.231415
vt 0.401531 0.199001
vt 0.348678 0.231415
vt 0.348678 0.199001
vt 0.335768 0.164666
vt 0.425631 0.164666
vt 0.335768 0.020136
vt 0.425631 0.020136
vt 0.394979 0.571781
vt 0.449357 0.571781
vt 0.411702 0.479584
vt 0.432634 0.479584
vt 0.463950 0.278617
vt 0.380386 0.278617
vt 0.432634 0.300260
vt 0.411702 0.300260
vt 0.400530 0.199615
vt 0.349679 0.199615
vt 0.400530 0.230801
vt 0.349679 0.230801
vt 0.425631 0.164666
vt 0.425631 0.020136
vt 0.335768 0.164666
vt 0.335768 0.020136
vt 0.448680 0.571781
vt 0.432634 0.479584
vt 0.395656 0.571781
vt 0.380386 0.278617
vt 0.411702 0.300260
vt 0.463950 0.278617
vt 0.432634 0.300260
vt 0.121702 0.967169
vt 0.121702 0.025100
vt 0.100770 0.967169
vt 0.100770 0.025100
vt 0.310958 0.967169
vt 0.310958 0.025100
vt 0.131633 0.967169
vt 0.131633 0.025100
vt 0.121702 0.967169
vt 0.121702 0.025100
vt 0.100770 0.967169
vt 0.100770 0.025100
vt 0.310958 0.967169
vt 0.310958 0.025100
vt 0.131633 0.967169
vt 0.131633 0.025100
vt 0.416887 0.240832
vt 0.416887 0.189584
vt 0.401531 0.231415
vt 0.401531 0.199001
vt 0.380386 0.278617
vt 0.463950 0.278617
vt 0.395741 0.262235
vt 0.448595 0.262235
vt 0.333323 0.189584
vt 0.333323 0.240832
vt 0.348678 0.199001
vt 0.348678 0.231415
vt 0.604167 0.950787
vt 0.520602 0.950787
vt 0.588811 0.967169
vt 0.535958 0.967169
vt 0.604167 0.950787
vt 0.520602 0.950787
vt 0.587810 0.967169
vt 0.536959 0.967169
vt 0.333323 0.189584
vt 0.333323 0.240832
vt 0.349679 0.199615
vt 0.349679 0.230801
vt 0.380386 0.278617
vt 0.463950 0.278617
vt 0.396743 0.262235
vt 0.447594 0.262235
vt 0.416887 0.240832
vt 0.416887 0.189584
vt 0.400530 0.230801
vt 0.400530 0.199615
vt 0.621194 0.960527
vt 0.711058 0.960527
vt 0.672716 0.794018
vt 0.719639 0.794018
vt 0.764051 0.794018
vt 0.772632 0.960527
vt 0.810973 0.794018
vt 0.862495 0.960527
vt 0.349903 0.967169
vt 0.494433 0.967169
vt 0.384435 0.800659
vt 0.459902 0.800659
vt 0.634649 0.262235
vt 0.490119 0.262235
vt 0.600118 0.428744
vt 0.524651 0.428744
vt 0.693468 0.565140
vt 0.734909 0.565140
vt 0.394979 0.571781
vt 0.449357 0.571781
vt 0.790221 0.565140
vt 0.748780 0.565140
vt 0.589574 0.657623
vt 0.535195 0.657623
vt 0.737540 0.271975
vt 0.686291 0.271975
vt 0.746150 0.271975
vt 0.797398 0.271975
vt 0.604167 0.950787
vt 0.520602 0.950787
vt 0.449357 0.571781
vt 0.463950 0.278617
vt 0.432634 0.479584
vt 0.432634 0.300260
vt 0.394979 0.571781
vt 0.411702 0.479584
vt 0.380386 0.278617
vt 0.411702 0.300260
vt 0.862495 0.960527
vt 0.810973 0.794018
vt 0.772632 0.960527
vt 0.764051 0.794018
vt 0.621194 0.960527
vt 0.711057 0.960527
vt 0.672716 0.794018
vt 0.719639 0.794018
vt 0.494433 0.967169
vt 0.459902 0.800659
vt 0.349903 0.967169
vt 0.384434 0.800659
vt 0.490119 0.262235
vt 0.524651 0.428744
vt 0.634649 0.262235
vt 0.600118 0.428744
vt 0.789705 0.565140
vt 0.749296 0.565140
vt 0.448680 0.571781
vt 0.395656 0.571781
vt 0.734393 0.565140
vt 0.693984 0.565140
vt 0.535872 0.657623
vt 0.588897 0.657623
vt 0.797398 0.271975
vt 0.746150 0.271975
vt 0.737540 0.271975
vt 0.686291 0.271975
vt 0.520602 0.950787
vt 0.604167 0.950787
vt 0.411702 0.479584
vt 0.395656 0.571781
vt 0.411702 0.479584
vt 0.380386 0.278617
vt 0.411702 0.300260
vt 0.432634 0.300260
vt 0.432634 0.479584
vt 0.463950 0.278617
vt 0.448680 0.571781
vn 0.0000 1.0000 0.0000
vn 0.0000 -1.0000 0.0000
vn 0.0000 -0.0304 -0.9995
vn 0.0000 0.0000 -1.0000
vn 0.0000 -0.0364 0.9993
vn 0.0000 0.0000 1.0000
vn -1.0000 0.0000 -0.0000
vn 1.0000 0.0000 0.0000
vn 0.6479 0.7617 0.0000
vn 0.0000 0.5230 -0.8523
vn -0.6479 0.7617 0.0000
vn 0.0000 0.5230 0.8523
vn 0.0000 0.5471 -0.8370
vn -0.6240 0.7815 0.0000
vn 0.0000 0.5472 0.8370
vn 0.6240 0.7815 0.0000
vn 0.9678 0.2517 0.0000
vn 0.9850 0.1725 -0.0000
vn 0.9876 0.1570 -0.0000
vn -0.9876 0.1570 -0.0000
vn -0.9678 0.2517 0.0000
vn -0.9850 0.1725 -0.0000
vn 0.0000 -0.0549 -0.9985
vn -0.0000 -0.0616 -0.9981
vn 0.0000 0.3136 0.9495
vn 0.0002 0.2287 0.9735
vn -0.0002 0.2287 0.9735
vn 1.0000 -0.0080 0.0000
vn 0.9999 -0.0108 0.0000
vn 0.0000 -0.0710 -0.9975
vn -1.0000 -0.0080 0.0000
vn -0.9999 -0.0108 0.0000
vn -0.0001 0.0264 0.9997
vn 0.0001 0.0264 0.9997
vn 0.9981 -0.0623 0.0000
vn -0.9981 -0.0623 0.0000
vn 0.0000 -0.0261 0.9997
vn -0.0318 -0.0091 -0.9995
vn -0.0440 -0.0085 -0.9990
vn -0.0315 -0.0083 -0.9995
vn -0.0440 -0.0099 -0.9990
vn 0.0318 -0.0091 -0.9995
vn 0.0315 -0.0083 -0.9995
vn 0.0440 -0.0085 -0.9990
vn 0.0440 -0.0099 -0.9990
vn 0.9847 0.1745 0.0000
vn 0.9872 0.1593 0.0000
vn -0.9847 0.1745 0.0000
vn -0.9872 0.1593 0.0000
vn 0.0000 -0.0549 0.9985
vn -0.0000 -0.0605 0.9982
vn 0.0000 0.3136 -0.9495
vn 0.0002 0.2302 -0.9731
vn -0.0002 0.2302 -0.9731
vn 1.0000 -0.0079 -0.0000
vn 0.9999 -0.0109 -0.0000
vn 0.0000 -0.0687 0.9976
vn -0.9999 -0.0109 -0.0000
vn -1.0000 -0.0079 -0.0000
vn -0.0001 0.0264 -0.9997
vn 0.0001 0.0264 -0.9997
vn 0.9979 -0.0652 0.0000
vn -0.9979 -0.0652 0.0000
vn 0.0000 -0.0280 -0.9996
vn -0.0384 -0.0110 0.9992
vn -0.0380 -0.0100 0.9992
vn -0.0532 -0.0103 0.9985
vn -0.0532 -0.0119 0.9985
vn 0.0532 -0.0119 0.9985
vn 0.0380 -0.0100 0.9992
vn 0.0532 -0.0103 0.9985
vn 0.0384 -0.0110 0.9992
usemtl lambert1.001
s off
f 5/1/1 6/2/1 7/3/1
f 7/3/1 6/2/1 8/4/1
f 13/5/2 14/6/2 15/7/2
f 15/7/2 14/6/2 16/8/2
f 39/9/3 40/10/3 41/11/3
f 41/11/3 40/10/3 42/12/3
f 47/13/4 48/14/4 49/15/4
f 49/15/4 48/14/4 50/16/4
f 59/17/1 60/18/1 61/19/1
f 61/19/1 60/18/1 62/20/1
f 67/21/2 68/22/2 69/23/2
f 69/23/2 68/22/2 70/24/2
f 93/25/5 94/26/5 95/27/5
f 101/28/6 102/29/6 103/30/6
f 103/30/6 102/29/6 104/31/6
f 109/32/2 110/33/2 111/34/2
f 111/34/2 110/33/2 112/35/2
f 113/36/7 114/37/7 115/38/7
f 115/38/7 114/37/7 116/39/7
f 117/40/1 118/41/1 119/42/1
f 119/42/1 118/41/1 120/43/1
f 121/44/8 122/45/8 123/46/8
f 123/46/8 122/45/8 124/47/8
f 125/48/9 126/49/9 127/50/9
f 127/50/9 126/49/9 128/51/9
f 129/52/10 130/53/10 131/54/10
f 131/54/10 130/53/10 132/55/10
f 133/56/11 134/57/11 135/58/11
f 135/58/11 134/57/11 136/59/11
f 137/60/12 138/61/12 139/62/12
f 139/62/12 138/61/12 140/63/12
f 141/64/13 142/65/13 143/66/13
f 143/66/13 142/65/13 144/67/13
f 145/68/14 146/69/14 147/70/14
f 147/70/14 146/69/14 148/71/14
f 149/72/15 150/73/15 151/74/15
f 151/74/15 150/73/15 152/75/15
f 153/76/16 154/77/16 155/78/16
f 155/78/16 154/77/16 156/79/16
s 1
f 1/80/17 2/81/17 3/82/18
f 3/82/18 2/81/17 4/83/19
f 9/84/20 10/85/21 11/86/22
f 11/86/22 10/85/21 12/87/21
f 17/88/23 18/89/23 19/90/24
f 19/90/24 18/89/23 20/91/24
f 21/92/25 22/93/25 23/94/26
f 23/94/26 22/93/25 24/95/27
f 3/82/18 4/83/19 25/96/28
f 25/96/28 4/83/19 26/97/29
f 19/90/24 20/91/24 27/98/30
f 27/98/30 20/91/24 28/99/30
f 11/86/22 29/100/31 9/84/20
f 9/84/20 29/100/31 30/101/32
f 23/94/26 24/95/27 31/102/33
f 31/102/33 24/95/27 32/103/34
f 26/97/29 33/104/35 25/96/28
f 25/96/28 33/104/35 34/105/35
f 30/101/32 29/100/31 35/106/36
f 35/106/36 29/100/31 36/107/36
f 31/102/33 32/103/34 37/108/37
f 37/108/37 32/103/34 38/109/37
f 43/110/38 44/111/39 45/112/40
f 45/112/40 44/111/39 46/113/41
f 51/114/42 52/115/43 53/116/44
f 53/116/44 52/115/43 54/117/45
f 55/118/17 56/119/46 57/120/17
f 57/120/17 56/119/46 58/121/47
f 63/122/21 64/123/21 65/124/48
f 65/124/48 64/123/21 66/125/49
f 71/126/50 72/127/51 73/128/50
f 73/128/50 72/127/51 74/129/51
f 75/130/52 76/131/53 77/132/52
f 77/132/52 76/131/53 78/133/54
f 56/119/46 79/134/55 58/121/47
f 58/121/47 79/134/55 80/135/56
f 72/127/51 81/136/57 74/129/51
f 74/129/51 81/136/57 82/137/57
f 83/138/58 84/139/59 66/125/49
f 66/125/49 84/139/59 65/124/48
f 76/131/53 85/140/60 78/133/54
f 78/133/54 85/140/60 86/141/61
f 87/142/62 88/143/62 79/134/55
f 79/134/55 88/143/62 80/135/56
f 83/138/58 89/144/63 84/139/59
f 84/139/59 89/144/63 90/145/63
f 85/140/60 91/146/64 86/141/61
f 86/141/61 91/146/64 92/147/64
f 95/27/5 94/26/5 96/148/5
f 97/149/65 98/150/66 99/151/67
f 99/151/67 98/150/66 100/152/68
f 105/153/69 106/154/70 107/155/71
f 107/155/71 106/154/70 108/156/72
