# Blender v3.1.2 OBJ File: ''
# www.blender.org
mtllib obstacle.mtl
o speedway_barriers_speedway_barriers.001
v 0.377518 -0.106999 1.377069
v 0.135208 -0.106999 1.375238
v 0.135208 0.724263 1.375238
v 0.377518 0.724263 1.377069
v 0.127518 -0.092719 -0.271429
v 0.369843 -0.092719 -0.269602
v 0.369843 0.738544 -0.269602
v 0.127518 0.738544 -0.271429
v 0.369843 -0.092719 -0.269602
v 0.377518 -0.106999 1.377069
v 0.377518 0.724263 1.377069
v 0.369843 0.738544 -0.269602
v 0.127518 0.738544 -0.271429
v 0.369843 0.738544 -0.269602
v 0.377518 0.724263 1.377069
v 0.135208 0.724263 1.375238
v 0.127518 -0.092719 -0.271429
v 0.127518 0.738544 -0.271429
v 0.135208 0.724263 1.375238
v 0.135208 -0.106999 1.375238
v 0.381760 0.724263 1.345924
v 0.381760 -0.106999 1.345924
v 0.371567 -0.092719 -0.298290
v 0.371567 0.738544 -0.298290
vt 4.017544 0.899473
vt 4.017544 0.899473
vt 4.017544 1.000041
vt 4.017544 1.000041
vt -3.029757 1.000097
vt -3.029757 1.000097
vt -3.029757 0.899476
vt -3.029757 0.899476
vt 4.017544 1.000041
vt 4.017544 2.116901
vt -3.029757 2.116796
vt -3.029757 1.000097
vt 4.017544 1.000041
vt -3.029757 1.000097
vt -3.029757 0.899476
vt 4.017544 0.899473
vt 4.017544 0.899473
vt -3.029757 0.899476
vt -3.029757 0.003129
vt 4.017544 0.003127
vt 4.017544 0.003127
vt 4.017544 0.899473
vt -3.029757 0.899476
vt -3.029757 0.003129
vn -0.0076 0.0000 1.0000
vn 0.0075 0.0000 -1.0000
vn 1.0000 0.0000 -0.0047
vn -0.0001 1.0000 0.0087
vn -0.6646 0.0000 0.7472
vn -0.7447 0.0000 -0.6674
vn -0.7480 0.0000 -0.6637
vn -0.6600 0.0000 0.7513
vn 0.1181 0.0000 0.9930
vn -0.1094 0.0000 -0.9940
usemtl SafetyBarrier.001
s 1
f 3/1/1 2/2/1 1/3/1
f 4/4/1 3/1/1 1/3/1
f 7/5/2 6/6/2 5/7/2
f 8/8/2 7/5/2 5/7/2
f 11/9/3 10/10/3 9/11/3
f 12/12/3 11/9/3 9/11/3
f 15/13/4 14/14/4 13/15/4
f 16/16/4 15/13/4 13/15/4
f 19/17/5 18/18/6 17/19/7
f 20/20/8 19/17/5 17/19/7
f 19/17/5 20/20/8 22/21/9 21/22/9
f 17/19/7 18/18/6 24/23/10 23/24/10
